<?xml version="1.0" encoding="utf-8"?>
<!-- Generator: Adobe Illustrator 23.0.0, SVG Export Plug-In . SVG Version: 6.00 Build 0)  -->
<svg version="1.1" id="Слой_1" xmlns="http://www.w3.org/2000/svg" xmlns:xlink="http://www.w3.org/1999/xlink" x="0px" y="0px"
	 viewBox="0 0 500 500" style="enable-background:new 0 0 500 500;" xml:space="preserve">
<g>
	<path d="M160.09,20.95l10.08-3.47c2.41-0.83,4.7-1.1,6.86-0.82c2.16,0.28,4.05,1.08,5.65,2.4c1.6,1.32,2.78,3.08,3.55,5.3
		c0.76,2.22,0.92,4.34,0.47,6.36c-0.45,2.02-1.44,3.81-2.97,5.37c-1.53,1.56-3.5,2.75-5.91,3.58l-10.08,3.47L160.09,20.95z
		 M176.1,35.54c2.22-0.76,3.78-1.99,4.67-3.68s0.98-3.59,0.25-5.71c-0.73-2.11-1.97-3.56-3.71-4.34c-1.75-0.78-3.73-0.79-5.95-0.03
		l-4.69,1.61l4.74,13.76L176.1,35.54z"/>
	<path d="M188.17,12l5.27-1.32l5.69,22.77l-5.27,1.32L188.17,12z"/>
	<path d="M206.56,31.41c-1.79-0.2-3.28-0.6-4.45-1.22l1.11-4.35c1.12,0.55,2.4,0.93,3.84,1.14c1.44,0.2,2.84,0.18,4.21-0.05
		c1.52-0.26,2.6-0.69,3.25-1.26c0.65-0.58,0.91-1.24,0.78-1.99c-0.1-0.55-0.39-0.97-0.88-1.26c-0.49-0.29-1.09-0.48-1.8-0.59
		s-1.66-0.19-2.85-0.25c-1.83-0.11-3.35-0.28-4.55-0.5c-1.2-0.22-2.28-0.73-3.24-1.51c-0.97-0.78-1.58-1.95-1.85-3.49
		c-0.23-1.34-0.08-2.62,0.45-3.84c0.54-1.22,1.48-2.27,2.84-3.17c1.35-0.89,3.09-1.52,5.2-1.89c1.47-0.26,2.95-0.33,4.42-0.23
		c1.47,0.11,2.79,0.4,3.96,0.88l-0.94,4.35c-2.35-0.84-4.59-1.07-6.72-0.7c-1.5,0.26-2.56,0.7-3.19,1.31s-0.88,1.31-0.74,2.1
		c0.14,0.79,0.65,1.31,1.55,1.55c0.89,0.24,2.22,0.4,3.98,0.48c1.83,0.11,3.35,0.28,4.54,0.5c1.2,0.22,2.27,0.72,3.24,1.48
		c0.96,0.76,1.57,1.91,1.84,3.46c0.23,1.32,0.07,2.59-0.48,3.81s-1.5,2.28-2.87,3.17c-1.36,0.9-3.1,1.53-5.22,1.9
		C210.16,31.55,208.35,31.61,206.56,31.41z"/>
	<path d="M229.75,27.24c-2-0.9-3.62-2.23-4.85-3.99s-1.93-3.8-2.1-6.12c-0.16-2.32,0.24-4.44,1.21-6.35
		c0.97-1.92,2.39-3.46,4.24-4.64c1.85-1.17,3.99-1.84,6.39-2.02c2.03-0.14,3.89,0.08,5.58,0.68c1.69,0.6,3.14,1.53,4.35,2.78
		l-3.25,3.46c-1.71-1.72-3.74-2.49-6.08-2.33c-1.45,0.1-2.72,0.51-3.81,1.23c-1.09,0.72-1.92,1.66-2.47,2.85
		c-0.55,1.18-0.78,2.5-0.68,3.95c0.1,1.45,0.51,2.72,1.23,3.81c0.72,1.09,1.66,1.92,2.85,2.47c1.18,0.56,2.5,0.78,3.95,0.68
		c2.34-0.17,4.24-1.23,5.69-3.19l3.71,2.96c-1.02,1.44-2.33,2.57-3.93,3.4c-1.6,0.83-3.41,1.32-5.44,1.46
		C233.95,28.51,231.75,28.14,229.75,27.24z"/>
	<path d="M249.75,4l5.43,0.09l-0.38,23.46l-5.43-0.09L249.75,4z"/>
	<path d="M277.59,6.49c1.47,0.82,2.56,1.9,3.27,3.24c0.72,1.34,1,2.88,0.85,4.61c-0.15,1.72-0.69,3.18-1.62,4.39
		c-0.93,1.21-2.19,2.09-3.77,2.64c-1.58,0.55-3.41,0.74-5.48,0.56l-4.71-0.4l-0.55,6.45l-5.41-0.46l2-23.38l10.12,0.86
		C274.36,5.17,276.12,5.67,277.59,6.49z M274.71,16.76c0.91-0.63,1.41-1.59,1.52-2.88c0.11-1.31-0.22-2.36-1.01-3.13
		c-0.79-0.77-1.99-1.23-3.62-1.37L267.2,9l-0.69,8.12l4.41,0.38C272.54,17.63,273.81,17.39,274.71,16.76z"/>
	<path d="M288.28,6.82l5.34,0.99l-3.47,18.72l11.57,2.15l-0.81,4.35L284,29.89L288.28,6.82z"/>
	<path d="M309.49,11.17l5.26,1.36l-5.88,22.72l-5.26-1.36L309.49,11.17z"/>
	<path d="M342.14,21.48l-7.79,22.14l-4.21-1.48l-6.3-17.32l-4.73,13.44l-5.06-1.78l7.79-22.14l4.24,1.49l6.27,17.31l4.73-13.44
		L342.14,21.48z"/>
	<path d="M357.42,49.72l-1.89,3.93l-16.37-7.89l10.19-21.14l15.97,7.7l-1.89,3.93l-11.11-5.36l-2.21,4.59l9.81,4.73l-1.84,3.8
		l-9.81-4.73l-2.36,4.89L357.42,49.72z"/>
	<path d="M371.54,35.64l9.03,5.67c2.16,1.36,3.8,2.97,4.94,4.83c1.14,1.86,1.7,3.83,1.68,5.9c-0.02,2.07-0.66,4.1-1.91,6.09
		c-1.25,1.99-2.8,3.44-4.66,4.36c-1.86,0.92-3.87,1.27-6.04,1.05c-2.17-0.22-4.34-1-6.5-2.36l-9.03-5.67L371.54,35.64z
		 M370.23,57.27c1.99,1.25,3.92,1.69,5.8,1.33c1.88-0.36,3.41-1.49,4.6-3.38c1.19-1.89,1.54-3.76,1.05-5.61
		c-0.49-1.85-1.72-3.4-3.71-4.65l-4.2-2.64l-7.74,12.32L370.23,57.27z"/>
	<path d="M396.09,51.87l4.33,3.27l-14.14,18.73l-4.33-3.27L396.09,51.87z"/>
	<path d="M392.56,78.38c-0.97-1.52-1.59-2.93-1.85-4.22l4.08-1.86c0.27,1.22,0.78,2.45,1.53,3.7c0.75,1.25,1.64,2.33,2.69,3.24
		c1.16,1.01,2.17,1.59,3.03,1.73c0.86,0.14,1.54-0.08,2.04-0.65c0.37-0.42,0.51-0.91,0.42-1.48c-0.09-0.56-0.31-1.16-0.68-1.77
		c-0.37-0.62-0.9-1.41-1.6-2.38c-1.07-1.5-1.89-2.78-2.47-3.85c-0.58-1.07-0.87-2.23-0.86-3.47c0-1.24,0.52-2.45,1.55-3.63
		c0.9-1.03,1.99-1.71,3.27-2.06c1.28-0.35,2.7-0.28,4.24,0.21c1.54,0.49,3.12,1.44,4.74,2.85c1.13,0.99,2.11,2.08,2.95,3.29
		c0.84,1.21,1.45,2.42,1.81,3.63l-3.98,2c-0.82-2.35-2.05-4.24-3.68-5.67c-1.14-1-2.15-1.55-3.02-1.66
		c-0.87-0.11-1.57,0.14-2.1,0.75c-0.53,0.61-0.61,1.33-0.23,2.18c0.37,0.85,1.08,1.98,2.13,3.4c1.07,1.5,1.89,2.78,2.47,3.85
		c0.58,1.07,0.87,2.22,0.88,3.44c0.01,1.23-0.5,2.43-1.53,3.61c-0.88,1.01-1.97,1.68-3.26,2.02c-1.29,0.34-2.71,0.26-4.27-0.24
		c-1.55-0.5-3.14-1.45-4.75-2.87C394.72,81.27,393.53,79.9,392.56,78.38z"/>
	<path d="M410.41,93.82c-0.56-2.12-0.54-4.22,0.05-6.28c0.59-2.07,1.74-3.89,3.44-5.48c1.7-1.59,3.6-2.6,5.7-3.05
		c2.1-0.45,4.19-0.32,6.27,0.38c2.08,0.7,3.94,1.94,5.59,3.7c1.39,1.49,2.38,3.07,2.98,4.76c0.6,1.69,0.79,3.4,0.57,5.13l-4.73-0.35
		c0.26-2.41-0.41-4.47-2.01-6.19c-0.99-1.06-2.11-1.79-3.35-2.19s-2.5-0.44-3.77-0.13c-1.27,0.31-2.43,0.96-3.5,1.95
		c-1.06,0.99-1.79,2.11-2.19,3.35c-0.4,1.24-0.44,2.5-0.13,3.77c0.31,1.27,0.96,2.43,1.95,3.5c1.6,1.72,3.62,2.52,6.06,2.42
		l0.03,4.74c-1.76,0.11-3.46-0.19-5.11-0.91c-1.65-0.72-3.17-1.83-4.56-3.31C412.07,97.87,410.97,95.94,410.41,93.82z"/>
	<path d="M440.93,94.62l3.38,4.25l-18.36,14.61l-3.38-4.25L440.93,94.62z"/>
	<path d="M456.61,117.97c0.28,1.66,0.13,3.18-0.47,4.58c-0.59,1.4-1.61,2.58-3.06,3.56c-1.43,0.96-2.9,1.46-4.43,1.49
		c-1.53,0.03-3-0.39-4.42-1.28c-1.42-0.89-2.71-2.19-3.88-3.92l-2.64-3.92l-5.36,3.62l-3.04-4.5l19.45-13.13l5.68,8.42
		C455.6,114.63,456.33,116.32,456.61,117.97z M446.81,122.18c1.06,0.31,2.13,0.1,3.2-0.62c1.09-0.74,1.69-1.66,1.8-2.75
		c0.11-1.1-0.29-2.32-1.21-3.67l-2.47-3.67l-6.75,4.56l2.47,3.67C444.76,121.04,445.75,121.87,446.81,122.18z"/>
	<path d="M463.04,126.46l2.58,4.78l-16.75,9.05l5.6,10.35l-3.89,2.1l-8.18-15.13L463.04,126.46z"/>
	<path d="M472.99,145.73l2.24,4.95l-21.37,9.69l-2.24-4.95L472.99,145.73z"/>
	<path d="M485.47,177.62l-22.12,7.84l-1.49-4.2l9.52-15.79l-13.43,4.76l-1.79-5.06l22.12-7.84l1.5,4.23l-9.53,15.76l13.43-4.76
		L485.47,177.62z"/>
	<path d="M473.09,207.22l-4.24,0.99l-4.14-17.69l22.85-5.34l4.04,17.27l-4.24,0.99l-2.81-12.01l-4.96,1.16l2.48,10.61l-4.11,0.96
		l-2.48-10.61l-5.29,1.24L473.09,207.22z"/>
	<path d="M492.91,209.38l1.25,10.59c0.3,2.53,0.08,4.82-0.65,6.88c-0.74,2.06-1.92,3.73-3.54,5.01c-1.63,1.28-3.6,2.06-5.94,2.34
		c-2.33,0.28-4.44-0.02-6.32-0.89c-1.88-0.87-3.42-2.22-4.61-4.05c-1.19-1.83-1.94-4.01-2.24-6.54l-1.25-10.59L492.91,209.38z
		 M475.25,221.93c0.28,2.33,1.14,4.11,2.61,5.35s3.3,1.72,5.52,1.46c2.22-0.26,3.9-1.16,5.03-2.7c1.13-1.54,1.56-3.48,1.29-5.81
		l-0.58-4.93l-14.45,1.71L475.25,221.93z"/>
	<path d="M495.7,238.67l0.18,5.43l-23.45,0.76l-0.18-5.43L495.7,238.67z"/>
	<path d="M472.85,252.59c0.57-1.71,1.28-3.08,2.12-4.1l4.02,2c-0.78,0.98-1.41,2.15-1.91,3.52c-0.5,1.37-0.78,2.74-0.83,4.13
		c-0.06,1.54,0.13,2.69,0.55,3.44c0.43,0.75,1.02,1.15,1.78,1.18c0.56,0.02,1.03-0.18,1.42-0.6c0.38-0.42,0.7-0.97,0.95-1.64
		c0.25-0.67,0.53-1.58,0.84-2.73c0.49-1.77,0.97-3.22,1.44-4.34c0.47-1.12,1.19-2.07,2.16-2.85c0.97-0.78,2.24-1.14,3.8-1.08
		c1.36,0.05,2.58,0.47,3.66,1.25c1.08,0.78,1.91,1.92,2.5,3.43c0.59,1.51,0.85,3.34,0.76,5.48c-0.06,1.5-0.29,2.95-0.7,4.37
		c-0.41,1.42-0.97,2.65-1.69,3.69l-4.06-1.83c1.31-2.12,2.01-4.26,2.09-6.43c0.06-1.52-0.14-2.65-0.61-3.39
		c-0.46-0.74-1.1-1.13-1.9-1.16c-0.8-0.03-1.42,0.37-1.84,1.19c-0.42,0.82-0.86,2.09-1.3,3.79c-0.49,1.77-0.97,3.22-1.44,4.34
		c-0.47,1.12-1.18,2.07-2.12,2.85c-0.95,0.78-2.2,1.14-3.76,1.08c-1.34-0.05-2.55-0.47-3.63-1.26c-1.08-0.79-1.91-1.95-2.5-3.47
		c-0.59-1.52-0.84-3.35-0.76-5.5C471.97,256.08,472.29,254.3,472.85,252.59z"/>
	<path d="M472.09,276.15c1.3-1.77,2.94-3.07,4.92-3.91c1.98-0.84,4.12-1.1,6.42-0.77s4.29,1.16,5.96,2.51
		c1.67,1.35,2.89,3.06,3.65,5.12c0.76,2.06,0.97,4.28,0.63,6.67c-0.28,2.01-0.89,3.78-1.83,5.31c-0.94,1.53-2.15,2.75-3.63,3.67
		l-2.7-3.9c2.04-1.32,3.22-3.14,3.54-5.46c0.2-1.44,0.07-2.77-0.4-3.98c-0.47-1.22-1.23-2.22-2.27-3.01
		c-1.04-0.79-2.28-1.29-3.72-1.49c-1.44-0.2-2.77-0.07-3.98,0.4s-2.22,1.23-3.01,2.27c-0.79,1.04-1.29,2.28-1.49,3.72
		c-0.33,2.32,0.32,4.4,1.93,6.23l-3.67,3c-1.19-1.3-2.03-2.81-2.51-4.55c-0.48-1.74-0.58-3.61-0.29-5.63
		C469.97,279.99,470.79,277.92,472.09,276.15z"/>
	<path d="M490.64,300.43l-1.18,5.3l-22.9-5.1l1.18-5.3L490.64,300.43z"/>
	<path d="M482.29,327.34c-1.11,1.26-2.4,2.1-3.86,2.51c-1.46,0.41-3.02,0.37-4.69-0.15c-1.64-0.51-2.96-1.34-3.94-2.51
		c-0.99-1.17-1.58-2.59-1.78-4.25c-0.2-1.66,0.01-3.49,0.62-5.47l1.39-4.52l-6.18-1.9l1.6-5.19l22.43,6.91l-2.99,9.71
		C484.27,324.46,483.41,326.09,482.29,327.34z M472.87,322.35c0.42,1.02,1.25,1.72,2.49,2.1c1.26,0.39,2.35,0.28,3.27-0.32
		c0.92-0.6,1.63-1.69,2.11-3.25l1.3-4.23l-7.78-2.4l-1.3,4.23C472.47,320.05,472.45,321.34,472.87,322.35z"/>
	<path d="M479.72,337.66l-2.1,5.01l-17.56-7.37l-4.56,10.85l-4.08-1.71l6.66-15.86L479.72,337.66z"/>
	<path d="M470.95,357.49l-2.45,4.85l-20.95-10.57l2.45-4.85L470.95,357.49z"/>
	<path d="M453.96,387.2l-19.98-12.31l2.34-3.8l18.27-2.49l-12.13-7.47l2.81-4.57l19.98,12.31l-2.36,3.82l-18.25,2.46l12.13,7.47
		L453.96,387.2z"/>
	<path d="M423.14,396.15l-3.44-2.68l11.17-14.33l18.51,14.42l-10.9,13.99l-3.44-2.68l7.58-9.73l-4.02-3.13l-6.7,8.59l-3.33-2.6
		l6.7-8.59l-4.28-3.34L423.14,396.15z"/>
	<path d="M433.92,412.93l-7.44,7.63c-1.78,1.82-3.7,3.1-5.76,3.82s-4.1,0.85-6.12,0.4c-2.02-0.46-3.87-1.5-5.55-3.14
		c-1.68-1.64-2.77-3.46-3.28-5.47c-0.51-2.01-0.43-4.05,0.24-6.13c0.67-2.08,1.89-4.03,3.67-5.85l7.44-7.63L433.92,412.93z
		 M413.05,407.1c-1.64,1.68-2.48,3.48-2.52,5.39c-0.04,1.91,0.74,3.65,2.34,5.21c1.6,1.56,3.36,2.3,5.27,2.21
		c1.91-0.09,3.69-0.97,5.32-2.65l3.47-3.55l-10.42-10.16L413.05,407.1z"/>
	<path d="M412.92,433.51l-4.11,3.55l-15.34-17.76l4.11-3.55L412.92,433.51z"/>
	<path d="M387.74,424.49c1.69-0.63,3.19-0.94,4.52-0.92l0.97,4.38c-1.25,0.01-2.56,0.25-3.94,0.72c-1.38,0.47-2.62,1.12-3.73,1.95
		c-1.24,0.92-2.01,1.79-2.33,2.6c-0.32,0.81-0.25,1.52,0.2,2.13c0.33,0.45,0.79,0.69,1.36,0.72c0.57,0.04,1.2-0.06,1.88-0.29
		s1.57-0.58,2.66-1.06c1.69-0.73,3.11-1.26,4.28-1.6c1.17-0.34,2.36-0.38,3.57-0.12c1.22,0.26,2.29,1.02,3.23,2.28
		c0.82,1.09,1.26,2.3,1.33,3.63c0.07,1.33-0.3,2.7-1.1,4.1c-0.8,1.41-2.07,2.75-3.79,4.04c-1.2,0.9-2.48,1.63-3.84,2.2
		c-1.36,0.57-2.67,0.9-3.93,1.01l-1.12-4.31c2.47-0.31,4.58-1.11,6.32-2.41c1.22-0.91,1.97-1.78,2.26-2.61
		c0.29-0.83,0.19-1.56-0.29-2.21c-0.48-0.65-1.17-0.87-2.08-0.69c-0.91,0.19-2.16,0.64-3.77,1.37c-1.69,0.73-3.11,1.26-4.28,1.6
		c-1.17,0.34-2.35,0.39-3.55,0.14c-1.2-0.25-2.27-1-3.21-2.25c-0.8-1.08-1.23-2.28-1.29-3.61c-0.06-1.33,0.32-2.71,1.13-4.12
		c0.81-1.41,2.08-2.76,3.8-4.05C384.46,425.99,386.05,425.12,387.74,424.49z"/>
	<path d="M368.9,438.7c2.19-0.1,4.24,0.36,6.13,1.37c1.9,1.01,3.44,2.52,4.63,4.51c1.19,2,1.79,4.07,1.78,6.22
		c0,2.15-0.57,4.17-1.69,6.05c-1.13,1.88-2.73,3.44-4.8,4.68c-1.74,1.04-3.51,1.68-5.28,1.91c-1.78,0.23-3.49,0.05-5.14-0.52
		l1.34-4.55c2.3,0.76,4.46,0.54,6.47-0.67c1.25-0.75,2.2-1.68,2.85-2.82c0.65-1.13,0.96-2.35,0.92-3.65
		c-0.04-1.31-0.43-2.58-1.18-3.83c-0.75-1.25-1.68-2.2-2.82-2.85c-1.13-0.65-2.35-0.96-3.66-0.92c-1.31,0.04-2.58,0.43-3.83,1.18
		c-2.01,1.2-3.23,3.01-3.64,5.42l-4.64-0.97c0.26-1.74,0.92-3.35,1.97-4.81c1.05-1.46,2.45-2.72,4.2-3.76
		C364.58,439.47,366.7,438.8,368.9,438.7z"/>
	<path d="M361.67,468.37l-4.87,2.41l-10.41-21.03l4.87-2.41L361.67,468.37z"/>
	<path d="M335.48,478.78c-1.68-0.08-3.14-0.55-4.38-1.43c-1.24-0.88-2.18-2.12-2.83-3.74c-0.64-1.6-0.81-3.15-0.52-4.65
		c0.29-1.5,1.02-2.85,2.19-4.05c1.17-1.2,2.72-2.19,4.65-2.96l4.39-1.75l-2.4-6.01l5.04-2.02l8.71,21.79l-9.43,3.77
		C338.97,478.51,337.16,478.85,335.48,478.78z M333.45,468.31c-0.53,0.97-0.55,2.05-0.07,3.26c0.49,1.23,1.26,2.01,2.31,2.34
		c1.05,0.34,2.33,0.2,3.85-0.4l4.11-1.64l-3.02-7.57l-4.11,1.64C335,466.56,333.98,467.34,333.45,468.31z"/>
	<path d="M325.84,483.26l-5.22,1.51l-5.29-18.29l-11.3,3.27l-1.23-4.25l16.52-4.78L325.84,483.26z"/>
	<path d="M304.91,488.89l-5.31,1.14l-4.93-22.94l5.31-1.14L304.91,488.89z"/>
	<path d="M271.07,494.32l-2.96-23.28l4.42-0.56l13.4,12.66l-1.8-14.13l5.32-0.68l2.96,23.28l-4.46,0.57l-13.37-12.66l1.8,14.13
		L271.07,494.32z"/>
	<path d="M244.78,475.96l-0.08-4.36l18.17-0.32l0.41,23.46l-17.73,0.31l-0.08-4.36l12.34-0.22l-0.09-5.1l-10.89,0.19l-0.07-4.22
		l10.89-0.19l-0.09-5.43L244.78,475.96z"/>
	<path d="M238.55,494.9l-10.61-0.99c-2.54-0.24-4.73-0.93-6.59-2.08c-1.86-1.15-3.24-2.65-4.16-4.51c-0.92-1.86-1.27-3.96-1.05-6.29
		c0.22-2.34,0.95-4.33,2.19-5.99s2.88-2.88,4.92-3.67c2.04-0.79,4.32-1.06,6.86-0.83l10.61,0.99L238.55,494.9z M229.96,475.01
		c-2.34-0.22-4.26,0.26-5.77,1.43c-1.51,1.17-2.37,2.87-2.58,5.1c-0.21,2.23,0.33,4.05,1.59,5.48c1.27,1.43,3.07,2.25,5.41,2.47
		l4.94,0.46l1.34-14.49L229.96,475.01z"/>
	<path d="M209.3,491.51l-5.35-0.96l4.17-23.09l5.34,0.96L209.3,491.51z"/>
	<path d="M200.48,466.25c1.55,0.92,2.74,1.9,3.56,2.94l-2.8,3.5c-0.79-0.96-1.8-1.83-3.03-2.61s-2.52-1.34-3.86-1.68
		c-1.49-0.38-2.66-0.44-3.48-0.18c-0.83,0.26-1.34,0.76-1.53,1.49c-0.14,0.54-0.04,1.05,0.29,1.51c0.33,0.47,0.8,0.89,1.4,1.28
		c0.61,0.39,1.44,0.85,2.5,1.4c1.63,0.85,2.94,1.63,3.94,2.32s1.78,1.6,2.33,2.71c0.56,1.11,0.64,2.43,0.25,3.94
		c-0.34,1.32-1,2.42-1.99,3.31c-0.99,0.89-2.28,1.46-3.89,1.72c-1.6,0.26-3.44,0.12-5.52-0.41c-1.45-0.37-2.82-0.91-4.12-1.61
		c-1.3-0.7-2.38-1.51-3.25-2.43l2.65-3.58c1.8,1.73,3.74,2.86,5.84,3.4c1.47,0.38,2.62,0.42,3.45,0.12
		c0.83-0.29,1.34-0.83,1.54-1.61c0.2-0.78-0.06-1.46-0.77-2.05c-0.71-0.59-1.86-1.28-3.43-2.07c-1.63-0.86-2.94-1.63-3.94-2.33
		c-1-0.69-1.78-1.59-2.34-2.68c-0.56-1.09-0.65-2.39-0.26-3.91c0.33-1.3,1-2.39,2-3.28c1-0.88,2.31-1.46,3.92-1.71
		c1.61-0.26,3.46-0.12,5.53,0.42C197.25,464.64,198.93,465.33,200.48,466.25z"/>
	<path d="M177.61,460.51c1.45,1.64,2.38,3.52,2.78,5.64c0.4,2.11,0.2,4.26-0.61,6.44c-0.81,2.18-2.05,3.94-3.72,5.29
		c-1.68,1.35-3.6,2.17-5.78,2.48c-2.17,0.3-4.39,0.04-6.66-0.8c-1.91-0.7-3.51-1.68-4.8-2.92c-1.29-1.24-2.23-2.68-2.82-4.33
		l4.39-1.81c0.85,2.27,2.38,3.81,4.58,4.62c1.36,0.5,2.69,0.65,3.98,0.45c1.29-0.2,2.43-0.73,3.42-1.58
		c0.99-0.85,1.74-1.95,2.24-3.32c0.5-1.36,0.65-2.69,0.45-3.98c-0.2-1.29-0.73-2.43-1.58-3.42c-0.85-0.99-1.95-1.74-3.32-2.24
		c-2.2-0.81-4.37-0.63-6.5,0.56l-2.16-4.23c1.52-0.89,3.18-1.39,4.98-1.48s3.65,0.2,5.56,0.91
		C174.31,457.63,176.16,458.87,177.61,460.51z"/>
	<path d="M149.96,473.49l-4.93-2.28l9.86-21.3l4.93,2.28L149.96,473.49z"/>
	<path d="M125.46,459.63c-0.99-1.36-1.54-2.79-1.64-4.31s0.28-3.03,1.14-4.55c0.84-1.5,1.94-2.61,3.29-3.32
		c1.35-0.72,2.86-0.99,4.53-0.84c1.67,0.16,3.41,0.74,5.22,1.76l4.12,2.32l3.17-5.64l4.73,2.66l-11.51,20.45l-8.85-4.98
		C127.86,462.17,126.46,460.99,125.46,459.63z M132.34,451.48c-1.09,0.2-1.95,0.86-2.58,1.99c-0.65,1.15-0.77,2.24-0.38,3.27
		c0.39,1.03,1.3,1.95,2.72,2.75l3.86,2.17l4-7.1l-3.86-2.17C134.68,451.59,133.42,451.29,132.34,451.48z"/>
	<path d="M115.89,454.91l-4.45-3.11l10.92-15.6l-9.64-6.75l2.54-3.62l14.09,9.86L115.89,454.91z"/>
	<path d="M98.37,442.16l-4.22-3.41l14.75-18.25l4.22,3.42L98.37,442.16z"/>
	<path d="M72.92,419.3l16.23-16.95l3.22,3.09l-1.41,18.38l9.86-10.29l3.87,3.71l-16.23,16.94l-3.24-3.11l1.43-18.36l-9.86,10.29
		L72.92,419.3z"/>
	<path d="M70.67,387.33l3.34-2.8l11.67,13.93l-17.99,15.07L56.3,399.93l3.34-2.8l7.92,9.46l3.91-3.27l-7-8.35l3.24-2.71l7,8.35
		l4.16-3.49L70.67,387.33z"/>
	<path d="M52,394.34l-5.9-8.88c-1.41-2.12-2.25-4.27-2.52-6.43c-0.27-2.17,0.03-4.19,0.9-6.07c0.87-1.88,2.28-3.47,4.24-4.77
		c1.95-1.3,3.97-1.98,6.04-2.06c2.07-0.07,4.05,0.44,5.94,1.53c1.89,1.09,3.54,2.7,4.95,4.82l5.9,8.88L52,394.34z M62.08,375.17
		c-1.3-1.96-2.88-3.15-4.74-3.59c-1.86-0.44-3.72-0.04-5.59,1.19c-1.86,1.24-2.95,2.8-3.27,4.69c-0.32,1.89,0.17,3.81,1.47,5.76
		l2.75,4.13l12.12-8.05L62.08,375.17z"/>
	<path d="M36.27,369.45l-2.61-4.76l20.59-11.26l2.61,4.76L36.27,369.45z"/>
	<path d="M50.41,346.75c0.26,1.78,0.24,3.32-0.05,4.61l-4.49,0.02c0.25-1.22,0.3-2.55,0.13-4c-0.17-1.45-0.54-2.8-1.12-4.06
		c-0.64-1.4-1.32-2.34-2.04-2.83c-0.72-0.48-1.43-0.56-2.12-0.25c-0.51,0.23-0.84,0.62-0.99,1.17c-0.15,0.55-0.19,1.18-0.11,1.89
		c0.08,0.71,0.24,1.65,0.48,2.82c0.36,1.8,0.58,3.31,0.66,4.52c0.09,1.21-0.13,2.39-0.64,3.52c-0.52,1.13-1.49,2.02-2.91,2.67
		c-1.24,0.57-2.52,0.74-3.83,0.53c-1.31-0.21-2.57-0.86-3.78-1.94c-1.21-1.08-2.25-2.6-3.15-4.55c-0.62-1.36-1.07-2.77-1.33-4.22
		c-0.27-1.45-0.32-2.8-0.16-4.06l4.45-0.19c-0.22,2.48,0.12,4.71,1.02,6.68c0.63,1.38,1.32,2.3,2.07,2.76
		c0.75,0.46,1.49,0.52,2.22,0.18c0.73-0.33,1.1-0.96,1.11-1.89s-0.17-2.25-0.54-3.97c-0.36-1.8-0.58-3.31-0.66-4.52
		c-0.09-1.21,0.12-2.38,0.61-3.5c0.49-1.12,1.45-2.01,2.88-2.66c1.22-0.56,2.49-0.72,3.81-0.5c1.32,0.22,2.58,0.88,3.79,1.97
		c1.21,1.09,2.26,2.62,3.15,4.57C49.63,343.23,50.15,344.97,50.41,346.75z"/>
	<path d="M40.49,325.32c-0.37,2.16-1.25,4.07-2.64,5.7c-1.39,1.64-3.19,2.83-5.39,3.57c-2.2,0.74-4.35,0.88-6.45,0.42
		c-2.1-0.46-3.95-1.44-5.55-2.94c-1.6-1.5-2.79-3.39-3.56-5.68c-0.65-1.93-0.9-3.78-0.74-5.57c0.15-1.79,0.69-3.42,1.6-4.91
		l4.16,2.28c-1.23,2.09-1.47,4.25-0.72,6.47c0.46,1.38,1.18,2.5,2.15,3.38c0.97,0.88,2.09,1.43,3.38,1.67
		c1.28,0.24,2.61,0.13,3.99-0.34c1.38-0.46,2.5-1.18,3.38-2.15c0.88-0.97,1.43-2.09,1.67-3.38c0.24-1.28,0.13-2.61-0.34-3.99
		c-0.75-2.22-2.26-3.79-4.52-4.7l1.94-4.33c1.65,0.62,3.08,1.6,4.28,2.94c1.21,1.34,2.13,2.97,2.78,4.9
		C40.66,320.94,40.86,323.16,40.49,325.32z"/>
	<path d="M13.04,311.97l-1.32-5.27L34.48,301l1.32,5.27L13.04,311.97z"/>
	<path d="M8.43,284.18c0.43-1.63,1.2-2.95,2.32-3.98c1.12-1.02,2.54-1.68,4.26-1.97c1.7-0.28,3.25-0.13,4.65,0.48
		c1.4,0.6,2.57,1.6,3.49,3c0.93,1.4,1.56,3.12,1.9,5.17l0.78,4.66l6.38-1.07l0.9,5.36l-23.14,3.88L8.3,289.69
		C7.96,287.64,8,285.8,8.43,284.18z M19.09,284.41c-0.83-0.72-1.89-0.97-3.17-0.76c-1.3,0.22-2.23,0.81-2.78,1.76
		c-0.55,0.96-0.7,2.24-0.43,3.84l0.73,4.37l8.03-1.35l-0.73-4.36C20.48,286.3,19.93,285.13,19.09,284.41z"/>
	<path d="M6.1,273.77l-0.37-5.42l19-1.3l-0.8-11.74l4.41-0.3l1.17,17.16L6.1,273.77z"/>
	<path d="M4.98,251.77l0.09-5.43l23.46,0.38l-0.09,5.43L4.98,251.77z"/>
	<path d="M6.79,218.01l23.38,1.96l-0.37,4.44l-15.18,10.47l14.2,1.19l-0.45,5.35l-23.38-1.96l0.38-4.48l15.17-10.43l-14.2-1.19
		L6.79,218.01z"/>
	<path d="M30.24,196.12l4.28,0.84l-3.5,17.83l-23.03-4.52l3.42-17.4l4.28,0.84l-2.38,12.11l5,0.98l2.1-10.69l4.14,0.81l-2.1,10.69
		l5.33,1.05L30.24,196.12z"/>
	<path d="M13.06,185.97l3.21-10.17c0.77-2.43,1.91-4.43,3.43-6c1.52-1.57,3.28-2.61,5.29-3.11c2.01-0.5,4.13-0.4,6.37,0.31
		c2.24,0.71,4.03,1.84,5.39,3.41c1.36,1.57,2.2,3.43,2.54,5.59c0.34,2.16,0.12,4.45-0.65,6.88l-3.21,10.17L13.06,185.97z
		 M34.32,181.79c0.71-2.24,0.65-4.22-0.18-5.95c-0.83-1.73-2.3-2.93-4.44-3.6c-2.13-0.67-4.03-0.54-5.7,0.4
		c-1.67,0.94-2.86,2.53-3.56,4.76l-1.5,4.73l13.87,4.39L34.32,181.79z"/>
	<path d="M22.58,158.13l2.08-5.02l21.68,8.98l-2.08,5.02L22.58,158.13z"/>
	<path d="M49.12,154.91c-1.23,1.32-2.43,2.27-3.62,2.85l-2.83-3.48c1.11-0.57,2.18-1.37,3.2-2.41c1.02-1.04,1.84-2.18,2.46-3.41
		c0.69-1.38,1-2.5,0.92-3.36c-0.08-0.86-0.46-1.47-1.14-1.81c-0.5-0.25-1.01-0.26-1.54-0.04c-0.52,0.22-1.04,0.59-1.55,1.1
		c-0.51,0.51-1.14,1.22-1.9,2.14c-1.18,1.41-2.22,2.53-3.11,3.35c-0.89,0.83-1.94,1.4-3.14,1.7c-1.2,0.31-2.51,0.11-3.9-0.59
		c-1.22-0.61-2.16-1.5-2.82-2.65c-0.66-1.16-0.94-2.54-0.86-4.16c0.09-1.62,0.61-3.39,1.57-5.31c0.67-1.34,1.49-2.57,2.45-3.69
		c0.96-1.12,1.98-2.01,3.06-2.66l2.93,3.35c-2.07,1.39-3.59,3.05-4.56,4.99c-0.68,1.36-0.97,2.47-0.85,3.34
		c0.11,0.87,0.53,1.49,1.25,1.85c0.72,0.36,1.44,0.25,2.17-0.32c0.73-0.57,1.64-1.54,2.76-2.91c1.18-1.41,2.22-2.53,3.11-3.35
		c0.89-0.83,1.93-1.4,3.11-1.72c1.18-0.32,2.48-0.13,3.87,0.58c1.2,0.6,2.12,1.49,2.78,2.65c0.65,1.17,0.93,2.56,0.84,4.19
		c-0.09,1.63-0.62,3.4-1.58,5.32C51.37,152.09,50.35,153.58,49.12,154.91z"/>
	<path d="M59.59,133.76c-1.92,1.07-3.95,1.58-6.1,1.52s-4.2-0.71-6.16-1.96c-1.96-1.25-3.42-2.84-4.38-4.76
		c-0.96-1.92-1.36-3.98-1.2-6.17c0.16-2.19,0.89-4.3,2.19-6.34c1.09-1.71,2.38-3.07,3.87-4.07c1.49-1,3.09-1.61,4.83-1.83l0.84,4.67
		c-2.4,0.35-4.23,1.52-5.49,3.5c-0.78,1.23-1.21,2.49-1.28,3.79c-0.08,1.3,0.2,2.53,0.82,3.68c0.62,1.15,1.54,2.11,2.77,2.9
		c1.23,0.78,2.49,1.21,3.79,1.28c1.3,0.08,2.53-0.2,3.68-0.82c1.15-0.62,2.11-1.54,2.89-2.77c1.26-1.98,1.54-4.14,0.82-6.47
		l4.59-1.21c0.55,1.68,0.68,3.4,0.4,5.18c-0.29,1.78-0.97,3.53-2.07,5.24C63.1,131.14,61.5,132.69,59.59,133.76z"/>
	<path d="M52.77,103.97l3.27-4.34l18.73,14.13l-3.27,4.34L52.77,103.97z"/>
	<path d="M71.48,82.94c1.53-0.69,3.05-0.92,4.55-0.69c1.5,0.23,2.91,0.92,4.21,2.07c1.29,1.14,2.14,2.45,2.55,3.92
		c0.41,1.47,0.37,3.01-0.14,4.6c-0.5,1.6-1.45,3.18-2.82,4.73l-3.13,3.54l4.84,4.29l-3.6,4.07L60.38,93.91l6.73-7.6
		C68.49,84.75,69.95,83.63,71.48,82.94z M78,91.38c0.04-1.1-0.43-2.08-1.4-2.94c-0.99-0.87-2.03-1.23-3.12-1.06
		c-1.09,0.17-2.18,0.86-3.26,2.09l-2.93,3.31l6.1,5.4l2.93-3.31C77.41,93.65,77.97,92.48,78,91.38z"/>
	<path d="M78.09,74.6l3.98-3.7l12.96,13.95l8.62-8.01l3.01,3.24l-12.6,11.7L78.09,74.6z"/>
	<path d="M94.22,60.17l4.22-3.41l14.75,18.25l-4.22,3.41L94.22,60.17z"/>
	<path d="M121.9,40.09l13.16,19.43l-3.69,2.5l-17.68-5.24l7.99,11.8l-4.44,3.01l-13.16-19.43l3.72-2.52l17.65,5.26l-7.99-11.8
		L121.9,40.09z"/>
	<path d="M153.69,44.59l2.03,3.86l-16.07,8.47l-10.94-20.76l15.69-8.27l2.03,3.86l-10.91,5.75l2.38,4.51l9.64-5.08l1.97,3.74
		l-9.64,5.08l2.53,4.81L153.69,44.59z"/>
</g>
</svg>
